<?xml version="1.0"?>

<svg width="100%" height="100%" viewBox="0 0 2000 500" version="1.1" xmlns="http://www.w3.org/2000/svg" xmlns:xlink="http://www.w3.org/1999/xlink" xml:space="preserve" xmlns:serif="http://www.serif.com/" style="fill-rule:evenodd;clip-rule:evenodd;stroke-linejoin:round;stroke-miterlimit:2;">
    <g id="_72f6825c-a7b5-406f-94d2-d6019f0e32d9.png" transform="matrix(2.02955,0,0,2.02955,-39.129548,-334.821115)">
        <g id="lettering" fill="#FDFDFD">
            <path d="M289.497,221.041C289.872,221.023 296.429,220.699 293.874,222.717C271.122,240.686 271.838,242.321 267.497,242.405C219.319,243.329 199.143,239.065 183.747,247.923C175.996,252.383 159.88,269.014 161.53,270.454C162.248,271.08 249.06,269.644 254.552,271.297C276.609,277.935 261.97,297.267 260.933,298.793C236.412,334.895 223.771,340.041 212.402,343.141C202.301,345.895 202.112,344.911 81.547,345.321C78.174,345.332 84.474,341.073 85.874,339.962C103.307,326.131 103.266,326.107 104.799,324.927C109.37,321.41 184.914,327.119 202.564,321.71C218.567,316.806 236.13,294.14 235.661,292.371C235.423,291.473 121.153,292.28 120.72,292.026C119.864,291.525 122.823,286.676 123.083,286.25C155.246,233.553 161.569,233.166 161.86,232.946C183.665,216.433 190.977,221.999 289.497,221.041Z" style="fill:white;"></path>
            <path d="M389.536,344.95C353.3,345.603 352.221,344.007 350.869,346.708C345.574,357.283 345.635,365.09 335.51,365.041C327.502,365.003 322.311,365.709 323.6,362.536C326.342,355.793 344.329,316.967 355.325,291.421C363.875,271.557 374.641,274.846 407.499,274.813C409.942,274.81 420.608,273.532 426.17,278.864C433.31,285.709 427.386,295.508 413.723,326.605C406.238,343.641 393.233,344.142 389.536,344.95ZM374.288,295.388C362.395,322.719 357.643,328.7 361.448,328.832C389.395,329.8 391.617,327.252 393.302,325.32C393.731,324.828 408.315,295.996 406.063,292.774C403.991,289.811 379.858,289.893 376.578,292.593C375.133,293.784 375.353,293.874 374.288,295.388Z" style="fill:white;"></path>
            <path d="M430.499,345.085C428.226,345.162 422.024,345.893 423.593,343.571C424.292,342.538 424.608,342.867 435.446,333.436C443.235,326.658 444.275,329.031 454.498,328.943C493.802,328.607 501.15,333.163 515.975,308.755C517.17,306.786 517.745,305.683 515.48,305.643C452.294,304.523 448.12,308.085 447.318,300.52C447.24,299.785 458.398,266.39 477.718,256.942C485.636,253.07 485.917,253.26 543.499,253.318C554.776,253.329 561.717,252.43 556.946,255.889C551.128,260.108 544.357,269.31 538.5,269.34C492.011,269.58 488.106,265.841 474.033,285.146C472.297,287.528 470.08,287.839 472.498,289.505C474.543,290.914 527.658,287.24 534.324,291.78C536.908,293.54 545.841,299.624 523.163,329.237C515.621,339.085 509.308,342.413 499.522,344.593C496.345,345.301 495.098,345.053 430.499,345.085Z" style="fill:white;"></path>
            <path d="M914.5,344.885C909.101,344.251 912.288,340.584 917.217,329.384C931.951,295.898 932.836,295.354 931.034,292.796C929.169,290.148 914.219,289.782 912.871,292.692C901.618,316.982 894.31,341.118 887.366,344.185C886.179,344.709 870.346,346.801 871.247,342.461C872.037,338.652 892.274,296.76 891.147,293.623C889.785,289.831 874.212,289.018 871.968,293.733C862.383,313.879 853.249,341.124 847.576,343.656C843.777,345.35 829.688,346.372 830.372,342.475C831.129,338.169 832.29,338.611 852.118,292.336C858.478,277.493 858.865,274.865 874.5,274.851C944.108,274.787 944.593,274.483 949.279,277.804C959.624,285.136 951.494,295.385 934.018,337.291C930.083,346.725 921.93,344.888 914.5,344.885Z" style="fill:white;"></path>
            <path d="M695.497,318.065C688.798,318.187 687.346,318.729 687.384,325.501C687.403,328.813 692.002,328.898 692.494,328.907C704.809,329.135 734.365,328.357 735.468,329.528C736.179,330.283 732.174,344.925 726.485,345.069C677.431,346.307 675.24,344.803 671.618,342.314C661.291,335.221 665.565,327.797 680.085,294.319C689.857,271.789 698.653,274.932 736.503,274.863C761.63,274.817 754.842,287.518 747.715,304.589C741.096,320.441 734.669,317.966 695.497,318.065ZM701.331,293.326C700.896,293.944 694.842,302.542 699.493,302.596C725.432,302.893 726.283,302.351 728.224,301.115C729.622,300.225 736.185,290.918 727.49,290.879C705.476,290.781 705.214,290.585 701.331,293.326Z" style="fill:white;"></path>
            <path d="M760.529,345.059C745.892,342.523 745.79,335.196 756.847,312.67C765.082,295.893 792.274,303.939 811.593,301.883C813.619,301.668 816.724,294.703 815.211,292.69C812.391,288.939 777.159,291.67 770.446,290.746C766.995,290.271 772.114,281.453 772.944,279.718C775.963,273.41 783.656,274.851 791.5,274.839C826.075,274.786 838.425,272.701 837.611,288.507C837.352,293.531 820.164,330.862 819.257,332.354C810.098,347.427 801.184,345.137 760.529,345.059ZM800.502,316.901C777.821,316.897 775.305,315.406 771.563,324.524C769.446,329.684 777.208,329.171 793.505,328.919C802.354,328.782 802.945,326.022 805.635,319.552C807.169,315.866 804.495,316.932 800.502,316.901Z" style="fill:white;"></path>
            <path d="M567.498,345.096C553.94,345.096 530.878,348.199 543.414,320.457C570.676,260.132 569.638,258.286 573.549,257.845C574.784,257.706 587.101,256.317 589.054,258.864C592.106,262.846 581.124,274.787 586.436,274.912C590.268,275.003 590.239,274.838 604.498,274.927C609.386,274.957 611.972,274.792 610.127,279.341C603.336,296.08 597.692,288.873 578.54,290.94C575.178,291.303 576.229,292.82 569.209,308.365C563.407,321.213 558.272,328.816 568.49,328.918C579.58,329.03 588.171,327.616 586.469,331.486C583.181,338.967 582.331,340.898 581.109,342.098C577.067,346.066 568.815,345.062 567.498,345.096Z" style="fill:white;"></path>
            <path d="M266.496,344.794C259.163,344.686 258.612,345.845 257.045,343.772C255.906,342.266 298.159,251.399 298.746,250.703C302.109,246.722 319.691,248.131 319.862,249.403C320.069,250.949 296.118,302.168 293.987,306.725C278.193,340.5 279.274,344.611 266.496,344.794Z" style="fill:white;"></path>
            <path d="M600.495,345.094C596.632,345.022 594.041,346.144 595.411,342.469C596.865,338.57 597.402,338.874 615.985,294.692C625.192,272.801 634.844,274.521 673.491,274.89C679.537,274.948 676.328,278.124 673.693,283.59C665.996,299.555 641.62,282.653 635.343,297.422C616.914,340.786 616.731,341.008 613.392,343.337C609.927,345.753 603.369,345.086 600.495,345.094Z" style="fill:white;"></path>
            <path d="M300.51,344.858C296.517,344.745 294.524,344.229 296.667,339.577C325.385,277.216 325.121,276.282 328.438,275.336C330.942,274.621 343.519,273.951 344.701,276.369C346.077,279.185 341.63,286.878 335.768,299.625C334.601,302.163 324.565,323.99 321.223,331.37C315.541,343.918 314.224,344.723 300.51,344.858Z" style="fill:white;"></path>
            <path d="M338.507,266.151C336.848,266.082 335.185,266.199 333.526,266.13C328.872,265.935 333.338,258.418 335.452,253.481C338.205,247.048 340.353,248.393 353.503,248.351C360.795,248.328 356.002,255.137 354.908,257.648C350.776,267.127 348.885,266.182 338.507,266.151Z" style="fill:white;"></path>
        </g>
    </g>
</svg>