<?xml version="1.0"?>

<svg width="100%" height="100%" viewBox="0 0 2000 2000" version="1.1" xmlns="http://www.w3.org/2000/svg" xmlns:xlink="http://www.w3.org/1999/xlink" xml:space="preserve" xmlns:serif="http://www.serif.com/" style="fill-rule:evenodd;clip-rule:evenodd;stroke-linejoin:round;stroke-miterlimit:2;">
    <g id="slipstream-icon" transform="matrix(1.953125,0,0,1.953125,0,-0)">
        <path d="M493.457,374.136C426.74,385.327 410.197,430.059 364.974,492.853C363.314,495.159 345.13,520.408 345.447,522.52C345.603,523.561 347.193,523.251 517.5,523.22C522.57,523.22 599.282,523.309 612.496,523.196C620.239,523.13 620.521,523.848 620.325,524.451C620.286,524.571 581.88,572.73 557.25,590.16C515.618,619.621 502.943,615.889 420.499,615.905C167.491,615.953 167.506,616.075 145.507,616.001C142.364,615.99 137.304,616.435 140.561,613.556C146.629,608.193 146.485,608.155 215.804,545.838C226.909,535.855 226.182,535.259 248.924,501.792C258.194,488.151 355.429,345.061 366.092,332.159C368.842,328.833 397.524,290.971 462.465,283.157C478.226,281.26 798.217,282.312 798.396,282.58C799.159,283.715 798.148,283.768 777.602,304.603C772.243,310.038 712.525,370.595 710.322,372.258C707.131,374.667 519.763,370.973 493.457,374.136Z" style="fill:rgb(46,46,46);"></path>
        <path d="M613.404,735.171C585.331,742.123 585.076,741.325 462.5,741.342C444.585,741.344 238.639,741.372 238.56,741.353C235.711,740.667 238.855,739.529 263.889,714.891C268.759,710.097 322.026,657.673 325.692,655.931C329.096,654.314 531.938,657.754 552.41,654.011C614.344,642.685 636.227,589.101 673.011,538.142C688.835,516.221 679.529,485.703 633.5,485.454C610.268,485.328 433.405,485.806 432.807,485.175C431.413,483.701 456.81,456.104 471.131,444.069C514.103,407.958 535.083,412.088 591.499,412.098C615.66,412.102 891.15,412.148 893.506,412.074C893.806,412.065 898.572,411.915 896.919,413.646C885.704,425.383 813.149,491.57 800.849,508.755C795.597,516.094 791.348,529.144 775.16,551.254C760.496,571.283 680.726,689.499 674.07,697.117C649.628,725.092 620.412,732.879 613.404,735.171Z" style="fill:rgb(245,184,75);"></path>
    </g>
</svg>